<mxfile host="app.diagrams.net" modified="2023-09-12T17:11:57.611Z" agent="Mozilla/5.0 (Windows NT 10.0; Win64; x64) AppleWebKit/537.36 (KHTML, like Gecko) Chrome/116.0.0.0 Safari/537.36 Edg/116.0.1938.76" etag="HmIuMx7gvv0oi-Y7F1Qh" version="21.1.7" type="device">
  <diagram name="Page-1" id="kCxGdEP5XuMggfyaXoJa">
    <mxGraphModel dx="1386" dy="793" grid="1" gridSize="10" guides="1" tooltips="1" connect="1" arrows="1" fold="1" page="1" pageScale="1" pageWidth="827" pageHeight="1169" math="0" shadow="0">
      <root>
        <mxCell id="0" />
        <mxCell id="1" parent="0" />
        <mxCell id="yNVsL2KUx84_nn2jvU_j-70" style="edgeStyle=orthogonalEdgeStyle;rounded=0;orthogonalLoop=1;jettySize=auto;html=1;exitX=0.5;exitY=1;exitDx=0;exitDy=0;entryX=0.5;entryY=0;entryDx=0;entryDy=0;" edge="1" parent="1" source="yNVsL2KUx84_nn2jvU_j-1" target="yNVsL2KUx84_nn2jvU_j-69">
          <mxGeometry relative="1" as="geometry" />
        </mxCell>
        <mxCell id="yNVsL2KUx84_nn2jvU_j-1" value="&lt;font face=&quot;Times New Roman&quot;&gt;DS18B20 reading routine&lt;/font&gt;" style="ellipse;whiteSpace=wrap;html=1;" vertex="1" parent="1">
          <mxGeometry x="638.75" y="40" width="62.5" height="60" as="geometry" />
        </mxCell>
        <mxCell id="yNVsL2KUx84_nn2jvU_j-6" style="edgeStyle=orthogonalEdgeStyle;rounded=0;orthogonalLoop=1;jettySize=auto;html=1;exitX=0.5;exitY=1;exitDx=0;exitDy=0;entryX=0.5;entryY=0;entryDx=0;entryDy=0;" edge="1" parent="1" source="yNVsL2KUx84_nn2jvU_j-3" target="yNVsL2KUx84_nn2jvU_j-4">
          <mxGeometry relative="1" as="geometry" />
        </mxCell>
        <mxCell id="yNVsL2KUx84_nn2jvU_j-3" value="&lt;font face=&quot;Times New Roman&quot;&gt;Send reset pulse&lt;/font&gt;" style="shape=parallelogram;perimeter=parallelogramPerimeter;whiteSpace=wrap;html=1;fixedSize=1;" vertex="1" parent="1">
          <mxGeometry x="610" y="180" width="120" height="40" as="geometry" />
        </mxCell>
        <mxCell id="yNVsL2KUx84_nn2jvU_j-9" style="edgeStyle=orthogonalEdgeStyle;rounded=0;orthogonalLoop=1;jettySize=auto;html=1;exitX=0.5;exitY=1;exitDx=0;exitDy=0;entryX=0.5;entryY=0;entryDx=0;entryDy=0;" edge="1" parent="1" source="yNVsL2KUx84_nn2jvU_j-4" target="yNVsL2KUx84_nn2jvU_j-8">
          <mxGeometry relative="1" as="geometry" />
        </mxCell>
        <mxCell id="yNVsL2KUx84_nn2jvU_j-4" value="&lt;font face=&quot;Times New Roman&quot;&gt;Command: &quot;Skip ROM&quot;&lt;/font&gt;" style="shape=parallelogram;perimeter=parallelogramPerimeter;whiteSpace=wrap;html=1;fixedSize=1;" vertex="1" parent="1">
          <mxGeometry x="590" y="240" width="160" height="40" as="geometry" />
        </mxCell>
        <mxCell id="yNVsL2KUx84_nn2jvU_j-11" style="edgeStyle=orthogonalEdgeStyle;rounded=0;orthogonalLoop=1;jettySize=auto;html=1;exitX=0.5;exitY=1;exitDx=0;exitDy=0;entryX=0.5;entryY=0;entryDx=0;entryDy=0;" edge="1" parent="1" source="yNVsL2KUx84_nn2jvU_j-8" target="yNVsL2KUx84_nn2jvU_j-10">
          <mxGeometry relative="1" as="geometry" />
        </mxCell>
        <mxCell id="yNVsL2KUx84_nn2jvU_j-8" value="&lt;font face=&quot;Times New Roman&quot;&gt;Command: &quot;Convert T&quot;&lt;/font&gt;" style="shape=parallelogram;perimeter=parallelogramPerimeter;whiteSpace=wrap;html=1;fixedSize=1;" vertex="1" parent="1">
          <mxGeometry x="590" y="300" width="160" height="40" as="geometry" />
        </mxCell>
        <mxCell id="yNVsL2KUx84_nn2jvU_j-13" style="edgeStyle=orthogonalEdgeStyle;rounded=0;orthogonalLoop=1;jettySize=auto;html=1;exitX=0.5;exitY=1;exitDx=0;exitDy=0;entryX=0.5;entryY=0;entryDx=0;entryDy=0;" edge="1" parent="1" source="yNVsL2KUx84_nn2jvU_j-10" target="yNVsL2KUx84_nn2jvU_j-12">
          <mxGeometry relative="1" as="geometry" />
        </mxCell>
        <mxCell id="yNVsL2KUx84_nn2jvU_j-10" value="&lt;font face=&quot;Times New Roman&quot;&gt;Read 1 bit&lt;/font&gt;" style="shape=parallelogram;perimeter=parallelogramPerimeter;whiteSpace=wrap;html=1;fixedSize=1;" vertex="1" parent="1">
          <mxGeometry x="620" y="360" width="100" height="40" as="geometry" />
        </mxCell>
        <mxCell id="yNVsL2KUx84_nn2jvU_j-14" style="edgeStyle=orthogonalEdgeStyle;rounded=0;orthogonalLoop=1;jettySize=auto;html=1;exitX=0;exitY=0.5;exitDx=0;exitDy=0;" edge="1" parent="1" source="yNVsL2KUx84_nn2jvU_j-12">
          <mxGeometry relative="1" as="geometry">
            <mxPoint x="670" y="350" as="targetPoint" />
            <Array as="points">
              <mxPoint x="590" y="440" />
              <mxPoint x="590" y="350" />
            </Array>
          </mxGeometry>
        </mxCell>
        <mxCell id="yNVsL2KUx84_nn2jvU_j-18" style="edgeStyle=orthogonalEdgeStyle;rounded=0;orthogonalLoop=1;jettySize=auto;html=1;exitX=0.5;exitY=1;exitDx=0;exitDy=0;entryX=0.5;entryY=0;entryDx=0;entryDy=0;" edge="1" parent="1" source="yNVsL2KUx84_nn2jvU_j-12" target="yNVsL2KUx84_nn2jvU_j-17">
          <mxGeometry relative="1" as="geometry" />
        </mxCell>
        <mxCell id="yNVsL2KUx84_nn2jvU_j-12" value="&lt;font face=&quot;Times New Roman&quot;&gt;Read bit is 1&lt;/font&gt;" style="rhombus;whiteSpace=wrap;html=1;" vertex="1" parent="1">
          <mxGeometry x="620" y="420" width="100" height="40" as="geometry" />
        </mxCell>
        <mxCell id="yNVsL2KUx84_nn2jvU_j-15" value="&lt;font face=&quot;Times New Roman&quot;&gt;True&lt;/font&gt;" style="text;html=1;strokeColor=none;fillColor=none;align=center;verticalAlign=top;whiteSpace=wrap;rounded=0;" vertex="1" parent="1">
          <mxGeometry x="580" y="420" width="60" height="30" as="geometry" />
        </mxCell>
        <mxCell id="yNVsL2KUx84_nn2jvU_j-21" style="edgeStyle=orthogonalEdgeStyle;rounded=0;orthogonalLoop=1;jettySize=auto;html=1;exitX=0.5;exitY=1;exitDx=0;exitDy=0;entryX=0.5;entryY=0;entryDx=0;entryDy=0;" edge="1" parent="1" source="yNVsL2KUx84_nn2jvU_j-17" target="yNVsL2KUx84_nn2jvU_j-20">
          <mxGeometry relative="1" as="geometry" />
        </mxCell>
        <mxCell id="yNVsL2KUx84_nn2jvU_j-17" value="&lt;font face=&quot;Times New Roman&quot;&gt;Send reset pulse&lt;/font&gt;" style="shape=parallelogram;perimeter=parallelogramPerimeter;whiteSpace=wrap;html=1;fixedSize=1;" vertex="1" parent="1">
          <mxGeometry x="610" y="480" width="120" height="40" as="geometry" />
        </mxCell>
        <mxCell id="yNVsL2KUx84_nn2jvU_j-19" value="&lt;font face=&quot;Times New Roman&quot;&gt;False&lt;/font&gt;" style="text;html=1;strokeColor=none;fillColor=none;align=center;verticalAlign=bottom;whiteSpace=wrap;rounded=0;" vertex="1" parent="1">
          <mxGeometry x="660" y="450" width="60" height="30" as="geometry" />
        </mxCell>
        <mxCell id="yNVsL2KUx84_nn2jvU_j-23" style="edgeStyle=orthogonalEdgeStyle;rounded=0;orthogonalLoop=1;jettySize=auto;html=1;exitX=0.5;exitY=1;exitDx=0;exitDy=0;entryX=0.5;entryY=0;entryDx=0;entryDy=0;" edge="1" parent="1" source="yNVsL2KUx84_nn2jvU_j-20" target="yNVsL2KUx84_nn2jvU_j-22">
          <mxGeometry relative="1" as="geometry" />
        </mxCell>
        <mxCell id="yNVsL2KUx84_nn2jvU_j-20" value="&lt;font face=&quot;Times New Roman&quot;&gt;Command: &quot;Skip ROM&quot;&lt;/font&gt;" style="shape=parallelogram;perimeter=parallelogramPerimeter;whiteSpace=wrap;html=1;fixedSize=1;" vertex="1" parent="1">
          <mxGeometry x="590" y="540" width="160" height="40" as="geometry" />
        </mxCell>
        <mxCell id="yNVsL2KUx84_nn2jvU_j-27" value="" style="edgeStyle=orthogonalEdgeStyle;rounded=0;orthogonalLoop=1;jettySize=auto;html=1;" edge="1" parent="1" source="yNVsL2KUx84_nn2jvU_j-22" target="yNVsL2KUx84_nn2jvU_j-26">
          <mxGeometry relative="1" as="geometry" />
        </mxCell>
        <mxCell id="yNVsL2KUx84_nn2jvU_j-22" value="&lt;font face=&quot;Times New Roman&quot;&gt;Command: &quot;Read scratchpad&quot;&lt;/font&gt;" style="shape=parallelogram;perimeter=parallelogramPerimeter;whiteSpace=wrap;html=1;fixedSize=1;" vertex="1" parent="1">
          <mxGeometry x="580" y="600" width="180" height="40" as="geometry" />
        </mxCell>
        <mxCell id="yNVsL2KUx84_nn2jvU_j-29" style="edgeStyle=orthogonalEdgeStyle;rounded=0;orthogonalLoop=1;jettySize=auto;html=1;exitX=0.5;exitY=1;exitDx=0;exitDy=0;entryX=0.5;entryY=0;entryDx=0;entryDy=0;" edge="1" parent="1" source="yNVsL2KUx84_nn2jvU_j-26" target="yNVsL2KUx84_nn2jvU_j-28">
          <mxGeometry relative="1" as="geometry" />
        </mxCell>
        <mxCell id="yNVsL2KUx84_nn2jvU_j-26" value="&lt;font face=&quot;Times New Roman&quot;&gt;Read 2 bytes&lt;/font&gt;" style="shape=parallelogram;perimeter=parallelogramPerimeter;whiteSpace=wrap;html=1;fixedSize=1;" vertex="1" parent="1">
          <mxGeometry x="620" y="660" width="100" height="40" as="geometry" />
        </mxCell>
        <mxCell id="yNVsL2KUx84_nn2jvU_j-32" style="edgeStyle=orthogonalEdgeStyle;rounded=0;orthogonalLoop=1;jettySize=auto;html=1;exitX=0.5;exitY=1;exitDx=0;exitDy=0;entryX=0.5;entryY=0;entryDx=0;entryDy=0;" edge="1" parent="1" source="yNVsL2KUx84_nn2jvU_j-28" target="yNVsL2KUx84_nn2jvU_j-31">
          <mxGeometry relative="1" as="geometry" />
        </mxCell>
        <mxCell id="yNVsL2KUx84_nn2jvU_j-28" value="&lt;font face=&quot;Times New Roman&quot;&gt;Convert 2 bytes into temperature value&lt;/font&gt;" style="rounded=0;whiteSpace=wrap;html=1;" vertex="1" parent="1">
          <mxGeometry x="610" y="720" width="120" height="40" as="geometry" />
        </mxCell>
        <mxCell id="yNVsL2KUx84_nn2jvU_j-35" style="edgeStyle=orthogonalEdgeStyle;rounded=0;orthogonalLoop=1;jettySize=auto;html=1;exitX=0.5;exitY=1;exitDx=0;exitDy=0;entryX=0.5;entryY=0;entryDx=0;entryDy=0;" edge="1" parent="1" source="yNVsL2KUx84_nn2jvU_j-31" target="yNVsL2KUx84_nn2jvU_j-34">
          <mxGeometry relative="1" as="geometry" />
        </mxCell>
        <mxCell id="yNVsL2KUx84_nn2jvU_j-31" value="&lt;font face=&quot;Times New Roman&quot;&gt;Respond to global request with temperature value&lt;/font&gt;" style="rounded=0;whiteSpace=wrap;html=1;" vertex="1" parent="1">
          <mxGeometry x="600" y="780" width="140" height="40" as="geometry" />
        </mxCell>
        <mxCell id="yNVsL2KUx84_nn2jvU_j-34" value="End" style="ellipse;whiteSpace=wrap;html=1;aspect=fixed;" vertex="1" parent="1">
          <mxGeometry x="650" y="840" width="40" height="40" as="geometry" />
        </mxCell>
        <mxCell id="yNVsL2KUx84_nn2jvU_j-38" style="edgeStyle=orthogonalEdgeStyle;rounded=0;orthogonalLoop=1;jettySize=auto;html=1;exitX=0.5;exitY=1;exitDx=0;exitDy=0;entryX=0.5;entryY=0;entryDx=0;entryDy=0;" edge="1" parent="1" source="yNVsL2KUx84_nn2jvU_j-39" target="yNVsL2KUx84_nn2jvU_j-41">
          <mxGeometry relative="1" as="geometry" />
        </mxCell>
        <mxCell id="yNVsL2KUx84_nn2jvU_j-39" value="&lt;font face=&quot;Times New Roman&quot;&gt;Send reset pulse&lt;/font&gt;" style="shape=parallelogram;perimeter=parallelogramPerimeter;whiteSpace=wrap;html=1;fixedSize=1;" vertex="1" parent="1">
          <mxGeometry x="210" y="180" width="120" height="40" as="geometry" />
        </mxCell>
        <mxCell id="yNVsL2KUx84_nn2jvU_j-40" style="edgeStyle=orthogonalEdgeStyle;rounded=0;orthogonalLoop=1;jettySize=auto;html=1;exitX=0.5;exitY=1;exitDx=0;exitDy=0;entryX=0.5;entryY=0;entryDx=0;entryDy=0;" edge="1" parent="1" source="yNVsL2KUx84_nn2jvU_j-41">
          <mxGeometry relative="1" as="geometry">
            <mxPoint x="270" y="300.0000000000001" as="targetPoint" />
          </mxGeometry>
        </mxCell>
        <mxCell id="yNVsL2KUx84_nn2jvU_j-41" value="&lt;font face=&quot;Times New Roman&quot;&gt;Command: &quot;Skip ROM&quot;&lt;/font&gt;" style="shape=parallelogram;perimeter=parallelogramPerimeter;whiteSpace=wrap;html=1;fixedSize=1;" vertex="1" parent="1">
          <mxGeometry x="190" y="240" width="160" height="40" as="geometry" />
        </mxCell>
        <mxCell id="yNVsL2KUx84_nn2jvU_j-66" value="" style="edgeStyle=orthogonalEdgeStyle;rounded=0;orthogonalLoop=1;jettySize=auto;html=1;" edge="1" parent="1" source="yNVsL2KUx84_nn2jvU_j-64" target="yNVsL2KUx84_nn2jvU_j-65">
          <mxGeometry relative="1" as="geometry" />
        </mxCell>
        <mxCell id="yNVsL2KUx84_nn2jvU_j-64" value="&lt;font face=&quot;Times New Roman&quot;&gt;DS18B20 setup routine&lt;/font&gt;" style="ellipse;whiteSpace=wrap;html=1;" vertex="1" parent="1">
          <mxGeometry x="238.75" y="40" width="62.5" height="60" as="geometry" />
        </mxCell>
        <mxCell id="yNVsL2KUx84_nn2jvU_j-68" style="edgeStyle=orthogonalEdgeStyle;rounded=0;orthogonalLoop=1;jettySize=auto;html=1;exitX=0.5;exitY=1;exitDx=0;exitDy=0;entryX=0.5;entryY=0;entryDx=0;entryDy=0;" edge="1" parent="1" source="yNVsL2KUx84_nn2jvU_j-65" target="yNVsL2KUx84_nn2jvU_j-39">
          <mxGeometry relative="1" as="geometry" />
        </mxCell>
        <mxCell id="yNVsL2KUx84_nn2jvU_j-65" value="&lt;font face=&quot;Times New Roman&quot;&gt;Declare a &lt;br&gt;OneWire instance&lt;/font&gt;" style="rounded=0;whiteSpace=wrap;html=1;" vertex="1" parent="1">
          <mxGeometry x="220" y="120" width="100" height="40" as="geometry" />
        </mxCell>
        <mxCell id="yNVsL2KUx84_nn2jvU_j-71" style="edgeStyle=orthogonalEdgeStyle;rounded=0;orthogonalLoop=1;jettySize=auto;html=1;exitX=0.5;exitY=1;exitDx=0;exitDy=0;entryX=0.5;entryY=0;entryDx=0;entryDy=0;" edge="1" parent="1" source="yNVsL2KUx84_nn2jvU_j-69" target="yNVsL2KUx84_nn2jvU_j-3">
          <mxGeometry relative="1" as="geometry" />
        </mxCell>
        <mxCell id="yNVsL2KUx84_nn2jvU_j-69" value="&lt;font face=&quot;Times New Roman&quot;&gt;Declare a &lt;br&gt;OneWire instance&lt;/font&gt;" style="rounded=0;whiteSpace=wrap;html=1;" vertex="1" parent="1">
          <mxGeometry x="620" y="120" width="100" height="40" as="geometry" />
        </mxCell>
        <mxCell id="yNVsL2KUx84_nn2jvU_j-75" value="" style="edgeStyle=orthogonalEdgeStyle;rounded=0;orthogonalLoop=1;jettySize=auto;html=1;" edge="1" parent="1" source="yNVsL2KUx84_nn2jvU_j-72" target="yNVsL2KUx84_nn2jvU_j-73">
          <mxGeometry relative="1" as="geometry" />
        </mxCell>
        <mxCell id="yNVsL2KUx84_nn2jvU_j-72" value="&lt;font face=&quot;Times New Roman&quot;&gt;Command: &quot;Read scratchpad&quot;&lt;/font&gt;" style="shape=parallelogram;perimeter=parallelogramPerimeter;whiteSpace=wrap;html=1;fixedSize=1;" vertex="1" parent="1">
          <mxGeometry x="180" y="300" width="180" height="40" as="geometry" />
        </mxCell>
        <mxCell id="yNVsL2KUx84_nn2jvU_j-77" style="edgeStyle=orthogonalEdgeStyle;rounded=0;orthogonalLoop=1;jettySize=auto;html=1;exitX=0.5;exitY=1;exitDx=0;exitDy=0;entryX=0.5;entryY=0;entryDx=0;entryDy=0;" edge="1" parent="1" source="yNVsL2KUx84_nn2jvU_j-73">
          <mxGeometry relative="1" as="geometry">
            <mxPoint x="270" y="420" as="targetPoint" />
          </mxGeometry>
        </mxCell>
        <mxCell id="yNVsL2KUx84_nn2jvU_j-109" style="edgeStyle=orthogonalEdgeStyle;rounded=0;orthogonalLoop=1;jettySize=auto;html=1;exitX=0;exitY=0.5;exitDx=0;exitDy=0;entryX=1;entryY=0.5;entryDx=0;entryDy=0;entryPerimeter=0;" edge="1" parent="1" source="yNVsL2KUx84_nn2jvU_j-73" target="yNVsL2KUx84_nn2jvU_j-84">
          <mxGeometry relative="1" as="geometry" />
        </mxCell>
        <mxCell id="yNVsL2KUx84_nn2jvU_j-73" value="&lt;font face=&quot;Times New Roman&quot;&gt;Read 5 bytes&lt;/font&gt;" style="shape=parallelogram;perimeter=parallelogramPerimeter;whiteSpace=wrap;html=1;fixedSize=1;" vertex="1" parent="1">
          <mxGeometry x="220" y="360" width="100" height="40" as="geometry" />
        </mxCell>
        <mxCell id="yNVsL2KUx84_nn2jvU_j-84" value="data[5]" style="strokeWidth=2;html=1;shape=mxgraph.flowchart.database;whiteSpace=wrap;" vertex="1" parent="1">
          <mxGeometry x="150" y="355" width="50" height="50" as="geometry" />
        </mxCell>
        <mxCell id="yNVsL2KUx84_nn2jvU_j-111" style="edgeStyle=orthogonalEdgeStyle;rounded=0;orthogonalLoop=1;jettySize=auto;html=1;exitX=1;exitY=0.5;exitDx=0;exitDy=0;" edge="1" parent="1" source="yNVsL2KUx84_nn2jvU_j-86" target="yNVsL2KUx84_nn2jvU_j-88">
          <mxGeometry relative="1" as="geometry" />
        </mxCell>
        <mxCell id="yNVsL2KUx84_nn2jvU_j-115" style="edgeStyle=orthogonalEdgeStyle;rounded=0;orthogonalLoop=1;jettySize=auto;html=1;exitX=0.5;exitY=1;exitDx=0;exitDy=0;" edge="1" parent="1" source="yNVsL2KUx84_nn2jvU_j-86">
          <mxGeometry relative="1" as="geometry">
            <mxPoint x="440" y="770" as="targetPoint" />
            <Array as="points">
              <mxPoint x="270" y="770" />
              <mxPoint x="330" y="770" />
            </Array>
          </mxGeometry>
        </mxCell>
        <mxCell id="yNVsL2KUx84_nn2jvU_j-86" value="&lt;font face=&quot;Times New Roman&quot;&gt;0x7F == data[4]&lt;/font&gt;" style="rhombus;whiteSpace=wrap;html=1;" vertex="1" parent="1">
          <mxGeometry x="210" y="420" width="120" height="40" as="geometry" />
        </mxCell>
        <mxCell id="yNVsL2KUx84_nn2jvU_j-91" style="edgeStyle=orthogonalEdgeStyle;rounded=0;orthogonalLoop=1;jettySize=auto;html=1;exitX=0.5;exitY=1;exitDx=0;exitDy=0;entryX=0.5;entryY=0;entryDx=0;entryDy=0;" edge="1" parent="1" source="yNVsL2KUx84_nn2jvU_j-88" target="yNVsL2KUx84_nn2jvU_j-90">
          <mxGeometry relative="1" as="geometry" />
        </mxCell>
        <mxCell id="yNVsL2KUx84_nn2jvU_j-88" value="&lt;font face=&quot;Times New Roman&quot;&gt;Send reset pulse&lt;/font&gt;" style="shape=parallelogram;perimeter=parallelogramPerimeter;whiteSpace=wrap;html=1;fixedSize=1;" vertex="1" parent="1">
          <mxGeometry x="380" y="420" width="120" height="40" as="geometry" />
        </mxCell>
        <mxCell id="yNVsL2KUx84_nn2jvU_j-89" value="&lt;font face=&quot;Times New Roman&quot;&gt;False&lt;/font&gt;" style="text;html=1;strokeColor=none;fillColor=none;align=center;verticalAlign=bottom;whiteSpace=wrap;rounded=0;" vertex="1" parent="1">
          <mxGeometry x="310" y="410" width="60" height="30" as="geometry" />
        </mxCell>
        <mxCell id="yNVsL2KUx84_nn2jvU_j-119" style="edgeStyle=orthogonalEdgeStyle;rounded=0;orthogonalLoop=1;jettySize=auto;html=1;exitX=0.5;exitY=1;exitDx=0;exitDy=0;entryX=0.5;entryY=0;entryDx=0;entryDy=0;" edge="1" parent="1" source="yNVsL2KUx84_nn2jvU_j-90" target="yNVsL2KUx84_nn2jvU_j-118">
          <mxGeometry relative="1" as="geometry" />
        </mxCell>
        <mxCell id="yNVsL2KUx84_nn2jvU_j-90" value="&lt;font face=&quot;Times New Roman&quot;&gt;Command: &quot;Skip ROM&quot;&lt;/font&gt;" style="shape=parallelogram;perimeter=parallelogramPerimeter;whiteSpace=wrap;html=1;fixedSize=1;" vertex="1" parent="1">
          <mxGeometry x="360" y="480" width="160" height="40" as="geometry" />
        </mxCell>
        <mxCell id="yNVsL2KUx84_nn2jvU_j-95" style="edgeStyle=orthogonalEdgeStyle;rounded=0;orthogonalLoop=1;jettySize=auto;html=1;exitX=0.5;exitY=1;exitDx=0;exitDy=0;entryX=0.5;entryY=0;entryDx=0;entryDy=0;" edge="1" parent="1" source="yNVsL2KUx84_nn2jvU_j-92" target="yNVsL2KUx84_nn2jvU_j-94">
          <mxGeometry relative="1" as="geometry" />
        </mxCell>
        <mxCell id="yNVsL2KUx84_nn2jvU_j-92" value="&lt;font face=&quot;Times New Roman&quot;&gt;Write data[2]&lt;/font&gt;" style="shape=parallelogram;perimeter=parallelogramPerimeter;whiteSpace=wrap;html=1;fixedSize=1;" vertex="1" parent="1">
          <mxGeometry x="390" y="600" width="100" height="40" as="geometry" />
        </mxCell>
        <mxCell id="yNVsL2KUx84_nn2jvU_j-97" style="edgeStyle=orthogonalEdgeStyle;rounded=0;orthogonalLoop=1;jettySize=auto;html=1;exitX=0.5;exitY=1;exitDx=0;exitDy=0;entryX=0.5;entryY=0;entryDx=0;entryDy=0;" edge="1" parent="1" source="yNVsL2KUx84_nn2jvU_j-94" target="yNVsL2KUx84_nn2jvU_j-96">
          <mxGeometry relative="1" as="geometry" />
        </mxCell>
        <mxCell id="yNVsL2KUx84_nn2jvU_j-94" value="&lt;font face=&quot;Times New Roman&quot;&gt;Write data[3]&lt;/font&gt;" style="shape=parallelogram;perimeter=parallelogramPerimeter;whiteSpace=wrap;html=1;fixedSize=1;" vertex="1" parent="1">
          <mxGeometry x="390" y="660" width="100" height="40" as="geometry" />
        </mxCell>
        <mxCell id="yNVsL2KUx84_nn2jvU_j-117" style="edgeStyle=orthogonalEdgeStyle;rounded=0;orthogonalLoop=1;jettySize=auto;html=1;exitX=0.5;exitY=1;exitDx=0;exitDy=0;entryX=0.5;entryY=0;entryDx=0;entryDy=0;" edge="1" parent="1" source="yNVsL2KUx84_nn2jvU_j-96" target="yNVsL2KUx84_nn2jvU_j-104">
          <mxGeometry relative="1" as="geometry" />
        </mxCell>
        <mxCell id="yNVsL2KUx84_nn2jvU_j-96" value="&lt;font face=&quot;Times New Roman&quot;&gt;Write 0x7F&lt;/font&gt;" style="shape=parallelogram;perimeter=parallelogramPerimeter;whiteSpace=wrap;html=1;fixedSize=1;" vertex="1" parent="1">
          <mxGeometry x="390" y="720" width="100" height="40" as="geometry" />
        </mxCell>
        <mxCell id="yNVsL2KUx84_nn2jvU_j-104" value="End" style="ellipse;whiteSpace=wrap;html=1;aspect=fixed;" vertex="1" parent="1">
          <mxGeometry x="420" y="780" width="40" height="40" as="geometry" />
        </mxCell>
        <mxCell id="yNVsL2KUx84_nn2jvU_j-114" value="&lt;font face=&quot;Times New Roman&quot;&gt;True&lt;/font&gt;" style="text;html=1;strokeColor=none;fillColor=none;align=center;verticalAlign=bottom;whiteSpace=wrap;rounded=0;" vertex="1" parent="1">
          <mxGeometry x="260" y="450" width="60" height="30" as="geometry" />
        </mxCell>
        <mxCell id="yNVsL2KUx84_nn2jvU_j-120" style="edgeStyle=orthogonalEdgeStyle;rounded=0;orthogonalLoop=1;jettySize=auto;html=1;exitX=0.5;exitY=1;exitDx=0;exitDy=0;entryX=0.5;entryY=0;entryDx=0;entryDy=0;" edge="1" parent="1" source="yNVsL2KUx84_nn2jvU_j-118" target="yNVsL2KUx84_nn2jvU_j-92">
          <mxGeometry relative="1" as="geometry" />
        </mxCell>
        <mxCell id="yNVsL2KUx84_nn2jvU_j-118" value="&lt;font face=&quot;Times New Roman&quot;&gt;Command: &quot;Write scratchpad&quot;&lt;/font&gt;" style="shape=parallelogram;perimeter=parallelogramPerimeter;whiteSpace=wrap;html=1;fixedSize=1;" vertex="1" parent="1">
          <mxGeometry x="350" y="540" width="180" height="40" as="geometry" />
        </mxCell>
      </root>
    </mxGraphModel>
  </diagram>
</mxfile>
